<?xml version="1.0" encoding="UTF-8"?>
<svg version="1.1" xmlns="http://www.w3.org/2000/svg" width="512" height="512">
<path d="M0 0 C10.62820748 7.71066033 11.77076801 19.3441467 13.97729492 31.49853516 C14.37814748 33.7048237 14.7888951 35.9091017 15.20117188 38.11328125 C17.1875 48.85182715 17.1875 48.85182715 17.1875 52.3125 C18.65875336 52.29584541 18.65875336 52.29584541 20.159729 52.27885437 C29.40011846 52.17752579 38.64039531 52.10255756 47.88121414 52.05343914 C52.6321451 52.02733774 57.38262782 51.99193003 62.13330078 51.93530273 C66.71744953 51.88100193 71.30116697 51.85108356 75.88561249 51.83811378 C77.63517803 51.82887038 79.38471979 51.81081992 81.13410187 51.78384972 C83.58373639 51.74758347 86.03158582 51.74255339 88.48144531 51.74487305 C89.20577255 51.72689667 89.93009979 51.70892029 90.67637634 51.69039917 C94.41094656 51.72869857 95.89919615 52.03690637 98.64074707 54.65759277 C100.54102253 57.9192999 100.64937427 59.94863217 100.578125 63.70703125 C100.55878906 65.51010742 100.55878906 65.51010742 100.5390625 67.34960938 C100.48878906 69.21842773 100.48878906 69.21842773 100.4375 71.125 C100.41945313 72.39021484 100.40140625 73.65542969 100.3828125 74.95898438 C100.33573916 78.07759335 100.26999094 81.19465973 100.1875 84.3125 C105.29336023 84.39257239 110.39483729 84.41271297 115.5012207 84.37963867 C117.23433982 84.37657463 118.96756708 84.38929704 120.70043945 84.41870117 C130.98336132 84.8115801 130.98336132 84.8115801 140.35205078 81.30810547 C145.70597376 76.01358802 147.29672951 72.80972746 147.3984375 65.328125 C147.42652004 63.90363462 147.45518459 62.47915561 147.484375 61.0546875 C147.52552194 58.81217944 147.56241294 56.56988057 147.58886719 54.32714844 C147.61663423 52.16036155 147.66251611 49.99453606 147.7109375 47.828125 C147.73075684 46.53165039 147.75057617 45.23517578 147.77099609 43.89941406 C148.29144934 39.4172927 149.62296531 35.98850281 152.72265625 32.66796875 C159.25529461 27.67242177 163.7855641 28.06562549 171.875 28 C173.04740234 27.97099609 174.21980469 27.94199219 175.42773438 27.91210938 C182.20781627 27.86234028 186.86876836 27.90514406 192.1875 32.3125 C198.23908972 39.21601254 196.66769706 48.75188987 196.52734375 57.42163086 C196.23850524 68.4856614 196.23850524 68.4856614 201.63720703 77.83276367 C202.40460205 78.56523315 202.40460205 78.56523315 203.1875 79.3125 C203.86296875 80.08980469 204.5384375 80.86710937 205.234375 81.66796875 C206.37851763 82.89870933 207.52437867 84.12785444 208.671875 85.35546875 C212.11053283 89.79559136 212.50382979 94.12038132 212.8125 99.625 C212.92464844 101.50638672 212.92464844 101.50638672 213.0390625 103.42578125 C213.08804687 104.37839844 213.13703125 105.33101563 213.1875 106.3125 C213.53039062 105.88839844 213.87328125 105.46429688 214.2265625 105.02734375 C220.60348512 97.88079254 229.77434858 93.00995353 239.1875 91.3125 C239.16131592 90.1572583 239.13513184 89.0020166 239.1081543 87.81176758 C239.01749652 83.51622974 238.96019449 79.22077606 238.9128418 74.92456055 C238.88773298 73.06699391 238.85363866 71.20952573 238.81030273 69.35229492 C238.74948876 66.67862642 238.7212548 64.00626635 238.69921875 61.33203125 C238.67341232 60.50476028 238.6476059 59.67748932 238.62101746 58.82514954 C238.61892291 54.49673553 238.79016028 52.82543548 241.53051758 49.2878418 C244.1875 47.3125 244.1875 47.3125 247.1875 46.6875 C251.28172081 47.54046267 252.59439307 49.05823666 255.1875 52.3125 C255.68969598 55.16217021 255.93225582 57.47015328 255.9375 60.3125 C256.04396824 64.75140681 256.24215542 68.95978023 257.1875 73.3125 C257.47485016 72.49897064 257.47485016 72.49897064 257.76800537 71.66900635 C259.76623337 66.01886992 261.78033976 60.37457837 263.80371094 54.73339844 C264.55648954 52.62808224 265.30522382 50.52131535 266.04980469 48.41308594 C267.12152008 45.38084586 268.20773006 42.35414138 269.296875 39.328125 C269.79087799 37.91542328 269.79087799 37.91542328 270.29486084 36.47418213 C273.36240595 28.03336522 273.36240595 28.03336522 277.1875 25.3125 C281.09364682 24.75447903 283.23861671 24.72857182 286.625 26.8125 C288.79322108 30.28165373 288.62543819 33.36563421 288.1875 37.3125 C287.32749912 40.72645371 286.13856311 43.98585259 284.90625 47.28125 C284.57330933 48.20216431 284.24036865 49.12307861 283.89733887 50.07189941 C282.83929119 52.9899292 281.76373249 55.90113461 280.6875 58.8125 C279.96367428 60.79905345 279.24100572 62.78602892 278.51953125 64.7734375 C276.7555392 69.62477733 274.97582212 74.47007882 273.1875 79.3125 C275.71159705 76.80257442 278.20664309 74.29169497 280.6171875 71.671875 C281.42414063 70.81078125 282.23109375 69.9496875 283.0625 69.0625 C283.86429687 68.19109375 284.66609375 67.3196875 285.4921875 66.421875 C288.79885141 63.83405107 291.02787362 63.45260356 295.1875 63.3125 C298.125 64.75 298.125 64.75 300.1875 67.3125 C300.75775688 71.98178281 300.91159367 74.91448056 297.984375 78.69921875 C296.98896615 79.81780194 295.97204305 80.91750852 294.9375 82 C294.40479492 82.58797363 293.87208984 83.17594727 293.32324219 83.78173828 C291.62934868 85.64283803 289.90946111 87.47737869 288.1875 89.3125 C287.02943791 90.57516334 285.87316662 91.83947161 284.71875 93.10546875 C281.89537024 96.19390218 279.04841851 99.25882457 276.1875 102.3125 C278.05893015 107.22161386 280.44198043 111.8083508 282.84765625 116.47265625 C288.95817398 129.42410345 284.49714977 142.9163714 280.03344727 155.58886719 C279.10168538 158.17015273 278.15502514 160.74444125 277.1875 163.3125 C278.69316528 163.32651855 278.69316528 163.32651855 280.22924805 163.34082031 C283.9663471 163.38080231 287.70262998 163.44658256 291.43920898 163.52001953 C293.05401089 163.54818186 294.66894943 163.56942 296.28393555 163.58349609 C298.61057237 163.60499258 300.93557477 163.65167211 303.26171875 163.703125 C303.97962082 163.70435364 304.69752289 163.70558228 305.43717957 163.70684814 C310.34660736 163.84914303 312.7415066 164.84860665 316.1875 168.3125 C316.81391239 170.94198608 316.81391239 170.94198608 316.81568909 173.98974609 C316.83467003 175.72633232 316.83467003 175.72633232 316.85403442 177.4980011 C316.84234222 178.76452011 316.83065002 180.03103912 316.81860352 181.3359375 C316.82374323 182.68650757 316.83102491 184.03707093 316.84028625 185.38761902 C316.85881676 189.05567835 316.8458464 192.72301158 316.82619596 196.3910408 C316.80979447 200.23848548 316.81862568 204.08588467 316.82371521 207.93334961 C316.82823887 214.40311235 316.81236046 220.87258631 316.78442383 227.34228516 C316.75247876 234.79721291 316.75234452 242.2516167 316.7696386 249.70658112 C316.7855772 256.89659621 316.77871628 264.08642127 316.76170158 271.27642822 C316.75487045 274.32559335 316.75582302 277.37460434 316.76324654 280.42376709 C316.77098209 284.02893334 316.75855035 287.63351389 316.73139763 291.2385807 C316.72136531 293.17328708 316.73062476 295.10806435 316.74072266 297.04277039 C316.61028824 309.14147859 313.45708538 318.6663194 306.1875 328.3125 C305.61 329.17875 305.0325 330.045 304.4375 330.9375 C295.8887658 339.96116388 285.0277581 344.447636 272.96264648 346.23193359 C271.93937728 346.39272589 270.91610807 346.55351818 269.86183071 346.71918297 C266.30629467 347.26919287 262.74776305 347.79398186 259.1875 348.3125 C258.53152659 348.40831895 257.87555318 348.5041379 257.19970179 348.60286045 C246.28197474 350.19539556 235.35496776 351.72013313 224.42624593 353.23505831 C219.89846785 353.86337838 215.3711971 354.49533521 210.84385681 355.12680054 C203.19641151 356.19294707 195.54864179 357.25673849 187.90063477 358.31884766 C180.22101373 359.38535263 172.54163186 360.45355376 164.86254883 361.52392578 C163.92915416 361.65402487 162.9957595 361.78412396 162.03408015 361.91816545 C160.15276223 362.18039773 158.27144497 362.44263472 156.39012837 362.70487642 C144.24059291 364.39839128 132.09087134 366.0904829 119.93960571 367.77154541 C119.02342976 367.89831012 118.1072538 368.02507483 117.16331494 368.15568089 C109.73689436 369.18317792 109.73689436 369.18317792 106.13867497 369.68075991 C94.48231832 371.29314771 82.82893309 372.92508294 71.17830372 374.57834053 C65.26011057 375.4178076 59.34075139 376.2489018 53.42102212 377.07746112 C49.49424843 377.62757674 45.5681872 378.18191896 41.64360237 378.7474556 C1.51667231 384.52403578 1.51667231 384.52403578 -12.6875 380.375 C-13.33589844 380.19259766 -13.98429688 380.01019531 -14.65234375 379.82226562 C-16.37707903 379.33530238 -18.09524148 378.82520668 -19.8125 378.3125 C-21.14441527 377.97354483 -22.47745558 377.63891274 -23.8125 377.3125 C-24.03134354 377.83566299 -24.25018707 378.35882599 -24.47566223 378.89784241 C-26.76278892 384.3652342 -29.05034086 389.83244792 -31.33813477 395.29956055 C-32.19078196 397.33727572 -33.04332237 399.37503558 -33.89575195 401.4128418 C-35.12422762 404.34956558 -36.35309296 407.28612604 -37.58203125 410.22265625 C-37.96027542 411.12709976 -38.33851959 412.03154327 -38.72822571 412.96339417 C-40.73443271 417.75606991 -42.75760752 422.54048829 -44.8125 427.3125 C-44.14863281 427.91835938 -43.48476562 428.52421875 -42.80078125 429.1484375 C-35.1085872 436.44759974 -30.46866651 442.77013728 -28.8125 453.3125 C-26.92403414 453.30696924 -26.92403414 453.30696924 -24.99741745 453.30132675 C4.87433254 453.2147339 34.74605021 453.1487573 64.6178949 453.10823868 C68.29295229 453.10323573 71.96800941 453.09805845 75.64306641 453.09277344 C76.37471778 453.0917242 77.10636916 453.09067495 77.86019179 453.08959392 C89.71390692 453.07217889 101.56754462 453.0406352 113.42121378 453.00388882 C125.58016169 452.96650986 137.73906899 452.94427061 149.898072 452.93614602 C157.40354912 452.93065189 164.90880738 452.9132866 172.41421714 452.88083413 C178.165084 452.85723165 183.91580998 452.85467245 189.66671562 452.86006927 C192.0290582 452.85896564 194.3914088 452.85096695 196.75370216 452.8356781 C199.97122198 452.8158695 203.18779418 452.82052794 206.40533447 452.83148193 C207.34696544 452.81983057 208.28859641 452.8081792 209.25876164 452.79617476 C215.53367031 452.85419057 215.53367031 452.85419057 218.7715416 455.12381363 C220.84206364 458.32427726 220.65356046 460.58401633 220.1875 464.3125 C218.42734869 467.4975357 217.68859084 468.14546972 214.1875 469.3125 C212.80170357 469.40164496 211.41199598 469.43626326 210.02333546 469.43554783 C208.74467805 469.4385344 208.74467805 469.4385344 207.44018918 469.44158131 C206.03504632 469.43721205 206.03504632 469.43721205 204.60151672 469.43275452 C203.60665023 469.43360894 202.61178373 469.43446337 201.58676976 469.43534368 C198.23792285 469.43699679 194.88912553 469.43147984 191.5402832 469.42602539 C189.14578248 469.42574346 186.75128168 469.42590137 184.35678101 469.4264679 C179.19374928 469.42669595 174.03072886 469.42385114 168.86770058 469.41823006 C161.40279901 469.41010816 153.93790355 469.40749913 146.47299805 469.40624207 C134.36212219 469.40405263 122.25125306 469.39739548 110.14038086 469.38793945 C98.3747562 469.37876253 86.60913337 469.37168306 74.84350586 469.36743164 C74.1184541 469.36716892 73.39340235 469.36690619 72.64637933 469.36663551 C69.00906193 469.36533049 65.37174452 469.36406677 61.73442709 469.36282361 C31.55211324 469.35245438 1.36980756 469.33476475 -28.8125 469.3125 C-29.01156952 470.000522 -29.21063904 470.68854401 -29.41574097 471.39741516 C-29.68057281 472.29921005 -29.94540466 473.20100494 -30.21826172 474.13012695 C-30.47920624 475.02439896 -30.74015076 475.91867096 -31.00900269 476.84004211 C-33.75373305 485.28590759 -40.38510398 491.76412719 -47.8125 496.3125 C-58.78230973 501.74769273 -69.02558878 502.5250145 -80.78515625 499.3515625 C-91.44965519 495.69123125 -99.08612381 489.07389243 -104.1875 479.125 C-108.96000031 469.18441781 -109.75948035 456.8859344 -106.25 446.3125 C-101.6520976 435.70195599 -93.42304401 427.4729024 -82.8125 422.875 C-75.37232265 420.38078933 -67.55043618 420.98592825 -59.8125 421.3125 C-59.64247971 420.70183685 -59.47245941 420.09117371 -59.29728699 419.46200562 C-57.53438092 413.337 -55.36345007 407.55697533 -52.80078125 401.7265625 C-52.03574144 399.95445551 -51.2707694 398.18231926 -50.50585938 396.41015625 C-49.3097116 393.65741163 -48.11114358 390.90574141 -46.91088867 388.15478516 C-45.74313246 385.47295462 -44.5840978 382.78748059 -43.42578125 380.1015625 C-43.06333817 379.27862701 -42.70089508 378.45569153 -42.32746887 377.6078186 C-41.99679916 376.83956757 -41.66612946 376.07131653 -41.32543945 375.27978516 C-41.03248489 374.60823395 -40.73953033 373.93668274 -40.43769836 373.24478149 C-39.60727207 371.01669288 -39.60727207 371.01669288 -39.8125 367.3125 C-42.01182284 364.77826131 -42.01182284 364.77826131 -44.875 362.25 C-55.35415736 352.30279665 -61.03017698 339.77601617 -66.05859375 326.43359375 C-66.66451103 324.84136993 -66.66451103 324.84136993 -67.28266907 323.21697998 C-68.60891159 319.7294166 -69.92940282 316.23970448 -71.25 312.75 C-72.17370661 310.3185964 -73.09786712 307.88736519 -74.02246094 305.45629883 C-75.71162441 301.01424477 -77.39944311 296.57168446 -79.08546257 292.12843609 C-83.76240538 279.80330609 -88.46053766 267.48627452 -93.16189575 255.17044067 C-94.54980352 251.53327256 -95.93602967 247.89546693 -97.32202148 244.25756836 C-98.16775266 242.04018148 -99.01353438 239.82281388 -99.859375 237.60546875 C-100.24692459 236.58725037 -100.63447418 235.56903198 -101.0337677 234.5199585 C-101.56377632 233.13178925 -101.56377632 233.13178925 -102.10449219 231.71557617 C-102.41199402 230.90883957 -102.71949585 230.10210297 -103.03631592 229.2709198 C-103.79279428 227.28007782 -103.79279428 227.28007782 -104.8125 225.3125 C-105.015625 223.2890625 -105.015625 223.2890625 -105.0625 220.9375 C-105.08828125 220.16664063 -105.1140625 219.39578125 -105.140625 218.6015625 C-104.8125 216.3125 -104.8125 216.3125 -103.15234375 214.43359375 C-102.71019531 213.73363281 -102.26804687 213.03367188 -101.8125 212.3125 C-102.55140738 209.07050025 -102.55140738 209.07050025 -104.125 205.75 C-106.8125 199.53559711 -106.8125 199.53559711 -106.8125 196.3125 C-107.699375 196.415625 -108.58625 196.51875 -109.5 196.625 C-113.98959468 196.20145333 -114.9483191 194.74834644 -117.8125 191.3125 C-119.22518039 188.57824347 -120.24679438 185.74834481 -121.265625 182.84765625 C-121.56738144 182.02550125 -121.86913788 181.20334625 -122.18003845 180.35627747 C-122.82172684 178.60400509 -123.45731311 176.84948786 -124.08724976 175.09295654 C-125.39466351 171.44928274 -126.73305082 167.81728249 -128.07072449 164.18463135 C-128.73246361 162.38742037 -129.39280196 160.58969298 -130.05171204 158.79144287 C-132.58873071 151.87607494 -135.21919414 145.00920224 -138 138.1875 C-138.33741211 137.34453369 -138.67482422 136.50156738 -139.02246094 135.63305664 C-141.94138996 128.53880941 -144.91679491 123.17409485 -151.8125 119.3125 C-156.47633674 117.43858841 -160.43038093 117.06170774 -165.44140625 117.0390625 C-166.90300261 117.01878537 -168.36459112 116.99793483 -169.82617188 116.9765625 C-172.10610665 116.95393776 -174.38572941 116.93747256 -176.66577148 116.93164062 C-178.883207 116.92210019 -181.09927805 116.88832809 -183.31640625 116.8515625 C-184.63455322 116.84334473 -185.9527002 116.83512695 -187.31079102 116.82666016 C-191.32385079 116.23741775 -192.98648597 115.16650096 -195.8125 112.3125 C-196.44140625 110.3125 -196.44140625 110.3125 -196.375 108.3125 C-196.37628906 107.6525 -196.37757813 106.9925 -196.37890625 106.3125 C-195.53245843 103.32366356 -194.26798151 102.21560177 -191.8125 100.3125 C-189.03745109 99.92576967 -186.66872713 99.7740896 -183.8984375 99.81640625 C-183.12875641 99.81495102 -182.35907532 99.81349579 -181.56607056 99.81199646 C-179.93707498 99.81365443 -178.30806357 99.82520457 -176.67919922 99.84594727 C-174.2164238 99.87466275 -171.75583631 99.86660285 -169.29296875 99.85351562 C-155.7843693 99.87092527 -144.32976572 101.7734549 -133.83984375 111.05859375 C-124.60829282 120.81766187 -120.5636717 134.71409747 -115.9375 147.0625 C-113.91625 152.425 -111.895 157.7875 -109.8125 163.3125 C-98.2625 163.6425 -86.7125 163.9725 -74.8125 164.3125 C-75.31652344 161.81171875 -75.82054688 159.3109375 -76.33984375 156.734375 C-77.63344133 149.53706525 -77.98637509 142.63003186 -77.75390625 135.328125 C-77.72424271 134.38100647 -77.69457916 133.43388794 -77.66401672 132.45806885 C-77.59964207 130.49800667 -77.53403821 128.53798451 -77.46725464 126.57800293 C-76.89458986 107.85946104 -78.31735366 92.60499564 -85.52734375 75.296875 C-88.37434831 68.43760592 -89.97525783 61.32324032 -87.75 54.0625 C-85.25600121 48.56667462 -81.8073029 44.5492778 -76.6875 41.375 C-70.56673231 39.18024811 -63.4458026 39.40281365 -57.375 41.5 C-51.16145933 45.8949434 -48.0515531 51.04169478 -44.6875 57.6875 C-44.25824219 58.5125 -43.82898438 59.3375 -43.38671875 60.1875 C-40.99484113 64.82406278 -38.80144167 69.48964144 -36.8125 74.3125 C-36.09556583 72.40067554 -35.38122238 70.48784117 -34.6796875 68.5703125 C-33.91316697 66.57459688 -33.02723909 64.62564323 -32.125 62.6875 C-29.28340889 54.85069083 -30.643224 46.07816311 -31.33984375 37.94140625 C-31.43628174 36.80106934 -31.53271973 35.66073242 -31.63208008 34.48583984 C-31.83215886 32.2022868 -32.04632458 29.91991413 -32.27612305 27.63916016 C-32.94962396 20.19320237 -33.25351668 13.37666694 -29.296875 6.7890625 C-21.33763965 -1.70795902 -11.05150522 -5.8165817 0 0 Z " fill="#010100" transform="translate(195.8125,6.6875)"/>
<path d="M0 0 C128.04 0 256.08 0 388 0 C388 124 388 124 385 131 C382.72668457 132.1051178 382.72668457 132.1051178 380.01757812 132.43383789 C378.99381577 132.5743306 377.97005341 132.7148233 376.91526794 132.85957336 C375.24017906 133.03929939 375.24017906 133.03929939 373.53125 133.22265625 C372.36429092 133.37409592 371.19733185 133.52553558 369.99501038 133.68156433 C366.16643636 134.17175532 362.33399172 134.61685891 358.5 135.0625 C355.85359892 135.39413463 353.20771594 135.72846771 350.56225586 136.06738281 C345.88882633 136.66322674 341.21436893 137.24890911 336.53782177 137.81978035 C326.41259496 139.05611359 316.31135877 140.44060425 306.21252441 141.87466431 C303.58460992 142.24686847 300.95602416 142.61389992 298.32714844 142.97924805 C290.7473561 144.03422857 283.17197236 145.11111275 275.60546875 146.2578125 C274.34597412 146.44827148 273.08647949 146.63873047 271.78881836 146.83496094 C269.53231325 147.17931342 267.27652548 147.52842365 265.02172852 147.88378906 C259.94586254 148.66346094 255.13602544 149.18650372 250 149 C250.64965225 148.08727829 251.2993045 147.17455658 251.96864319 146.23417664 C254.87234821 141.10980566 254.55274406 136.01040842 254.50170898 130.25317383 C254.50711197 129.08814835 254.51251495 127.92312286 254.51808167 126.72279358 C254.53055756 122.88394531 254.51408733 119.04584846 254.49609375 115.20703125 C254.49624873 112.53617842 254.49768376 109.86535235 254.50050354 107.19450378 C254.50320033 101.60362003 254.4897722 96.01295164 254.46655273 90.42211914 C254.43990707 83.96165761 254.43821014 77.50155511 254.4499411 71.04105741 C254.46072242 64.81691833 254.45453161 58.59290892 254.44038582 52.36878014 C254.43586472 49.72334865 254.43554024 47.0779066 254.43945122 44.43247414 C254.44235478 40.74097501 254.42589776 37.05006708 254.40405273 33.35864258 C254.40855438 32.26193237 254.41305603 31.16522217 254.41769409 30.03527832 C254.40778946 29.0301973 254.39788483 28.02511627 254.38768005 26.98957825 C254.38525016 26.11743588 254.38282026 25.24529352 254.38031673 24.3467226 C253.91134755 21.45297517 253.05205306 20.07745379 251 18 C246.39159676 17.36944298 246.39159676 17.36944298 242.30548 19.21700382 C240.57535251 21.57997429 240.62026718 23.04900647 240.61231995 25.96543884 C240.60241531 26.99030899 240.59251068 28.01517914 240.58230591 29.07110596 C240.58905838 30.7566861 240.58905838 30.7566861 240.59594727 32.47631836 C240.58908401 33.66026688 240.58222076 34.84421539 240.57514954 36.06404114 C240.55996898 39.31207516 240.55839184 42.55975019 240.56409192 45.80780482 C240.56717986 48.51909128 240.5610957 51.23032563 240.55505317 53.94160467 C240.54099987 60.33798551 240.54257565 66.73423282 240.55395508 73.13061523 C240.56543559 79.7296401 240.55136401 86.32825853 240.5245586 92.92722982 C240.5024066 98.59272784 240.4957631 104.25809824 240.50163502 109.9236365 C240.50500726 113.30748096 240.50257236 116.69106491 240.48538399 120.07487297 C240.47055031 123.84832087 240.48109635 127.62086791 240.49829102 131.39428711 C240.48862305 132.51598297 240.47895508 133.63767883 240.46899414 134.79336548 C240.47882828 135.82105545 240.48866241 136.84874542 240.49879456 137.90757751 C240.49900384 138.79966384 240.49921312 139.69175016 240.49942875 140.61086941 C241.16251595 143.77565749 242.55218669 144.95771986 245 147 C247.13309192 148.23512079 247.13309192 148.23512079 249 149 C244.01845702 150.87606186 239.24347293 151.65378469 234 152.3125 C232.60164917 152.49643311 232.60164917 152.49643311 231.17504883 152.68408203 C227.78414547 153.1289223 224.39213811 153.56467635 221 154 C214.89517783 154.78663757 208.79109369 155.57888903 202.6875 156.375 C201.46957764 156.53360001 201.46957764 156.53360001 200.22705078 156.69540405 C187.24472134 158.39044388 174.29856 160.26893803 161.35913086 162.26293945 C152.12847409 163.68499818 142.89110006 165.0136536 133.6328125 166.2421875 C129.2486349 166.82492513 124.87025029 167.44330627 120.4921875 168.0703125 C118.53780762 168.34766235 118.53780762 168.34766235 116.54394531 168.63061523 C113.9932093 168.99307654 111.44304139 169.35956608 108.89355469 169.73071289 C102.86514945 170.58128813 97.08859728 171.21906864 91 171 C91 170.34 91 169.68 91 169 C91.845625 168.319375 92.69125 167.63875 93.5625 166.9375 C96.17684332 164.38380719 96.17684332 164.38380719 96.09838867 162.04101562 C95.36147979 156.73951286 94.26571988 151.6940545 92.75 146.5625 C92.29540778 144.9753077 91.84098536 143.38806677 91.38671875 141.80078125 C91.1551709 141.0010791 90.92362305 140.20137695 90.68505859 139.37744141 C89.61833157 135.67545005 88.59060189 131.96286676 87.5625 128.25 C87.25530029 127.14628052 87.25530029 127.14628052 86.94189453 126.02026367 C85.81245606 121.95750718 84.69727597 117.89124507 83.59765625 113.8203125 C80.98059025 104.13909649 78.28167204 94.49218412 75.4375 84.875 C73.01875841 76.68180895 70.80135086 68.4674632 68.77539062 60.16894531 C66.88158663 52.4280996 64.76508747 44.75911826 62.58642578 37.09423828 C62.00681262 35.02432918 61.45138802 32.94929848 60.90234375 30.87109375 C60.56332031 29.61425781 60.22429687 28.35742188 59.875 27.0625 C59.58367187 25.96035156 59.29234375 24.85820312 58.9921875 23.72265625 C57.99740142 20.99286926 57.34688667 19.67716535 55 18 C51.5906288 17.63471023 49.11976176 17.3859371 46.0625 19.0625 C44.35390388 22.17817527 44.65968236 24.4833844 45 28 C45.40401117 29.33050935 45.84754484 30.6493727 46.3203125 31.95703125 C48.30724856 37.73999274 49.75897659 43.63593784 51.25 49.5625 C53.51040563 58.42579627 55.88907039 67.23357927 58.5 76 C61.40157141 85.75064845 63.99677085 95.56060474 66.51342773 105.41699219 C68.25833176 112.22334842 70.11556736 118.97320581 72.15234375 125.69726562 C74.24881049 132.68318934 76.05497681 139.74298055 77.85766602 146.80957031 C79.03349124 151.39685969 80.23553619 155.97687107 81.51953125 160.53515625 C81.74229736 161.33445557 81.96506348 162.13375488 82.19458008 162.95727539 C83.38460162 165.97543551 85.29012462 167.33238438 88 169 C88.66 169.66 89.32 170.32 90 171 C78.59503403 170.17054793 69.00686233 164.90199297 61.11230469 156.64868164 C53.82962398 147.51671181 50.19465453 134.63639073 46.20635986 123.75064087 C44.60415288 119.3803738 42.97886042 115.01868264 41.35546875 110.65625 C41.00911377 109.72436356 40.66275879 108.79247711 40.3059082 107.83235168 C36.4172264 97.39301123 32.40853511 87.00028595 28.39694214 76.60769653 C21.68283057 59.21357419 14.99344149 41.81024315 8.387146 24.37484741 C7.63298356 22.38532958 6.87766514 20.39624952 6.12115479 18.40762329 C5.08265461 15.67663972 4.0484662 12.94406537 3.015625 10.2109375 C2.70730743 9.40213638 2.39898987 8.59333527 2.08132935 7.76002502 C0 2.22917552 0 2.22917552 0 0 Z " fill="#FD7F85" transform="translate(109,187)"/>
<path d="M0 0 C5.61 0 11.22 0 17 0 C19.5630567 6.68728676 22.12544304 13.37483016 24.6875 20.0625 C25.28448196 21.62068954 25.28448196 21.62068954 25.89352417 23.21035767 C31.13718754 36.89808816 36.37193766 50.58917721 41.59461975 64.28492737 C45.1094106 73.5016279 48.62886828 82.71653734 52.15171814 91.93016052 C54.27209197 97.47617479 56.39040497 103.02295399 58.50341797 108.57177734 C60.46381119 113.71931397 62.43070702 118.8643186 64.40255737 124.00747681 C65.12396312 125.89244798 65.84304755 127.77830949 66.55960083 129.66513062 C74.91324232 152.4015837 74.91324232 152.4015837 93.45703125 167.03515625 C97.26169748 168.47870857 100.99544631 169.28951467 105 170 C104.08347656 169.42636719 103.16695313 168.85273438 102.22265625 168.26171875 C97.48152153 164.29152287 96.79164324 158.59579426 95.4375 152.8125 C94.84435949 150.44906571 94.2506077 148.08578474 93.65625 145.72265625 C93.37394531 144.56910645 93.09164062 143.41555664 92.80078125 142.22705078 C91.76259337 138.04328023 90.61521933 133.89620423 89.4375 129.75 C88.14050009 125.12239323 86.85858329 120.49126419 85.60546875 115.8515625 C82.98652095 106.15970969 80.28472213 96.50249757 77.4375 86.875 C75.01980946 78.68536925 72.80421304 70.47443548 70.77758789 62.17993164 C69.39508396 56.53265762 67.92831806 50.91526995 66.375 45.3125 C66.16705811 44.56202393 65.95911621 43.81154785 65.74487305 43.03833008 C64.6786539 39.24556899 63.52198033 35.52147819 62.1875 31.8125 C60.96462312 27.88642159 60.44066841 25.07513012 61 21 C62.5625 18.5625 62.5625 18.5625 65 17 C68.5 16.5 68.5 16.5 72 17 C75.25856717 19.65795818 76.60197908 21.88121404 77.67578125 25.91015625 C77.94285889 26.88694336 78.20993652 27.86373047 78.48510742 28.87011719 C78.89466675 30.45034668 78.89466675 30.45034668 79.3125 32.0625 C79.60809814 33.15852539 79.90369629 34.25455078 80.20825195 35.38378906 C81.15593243 38.91825936 82.081303 42.45789139 83 46 C83.4635791 47.78543213 83.4635791 47.78543213 83.93652344 49.60693359 C86.43387335 59.24649461 86.43387335 59.24649461 87.51489258 63.52368164 C88.88199301 68.89434498 90.34503192 74.20645302 92 79.49609375 C93.99760261 85.88325959 95.67966811 92.32402766 97.3125 98.8125 C99.57961845 107.69343078 101.96492598 116.52248859 104.5625 125.3125 C105.1367283 127.26562219 105.71094712 129.21874717 106.28515625 131.171875 C107.15725127 134.1364983 108.02984014 137.10095779 108.90576172 140.06445312 C109.78489055 143.05986234 110.64462264 146.06023389 111.5 149.0625 C111.76756104 149.96073486 112.03512207 150.85896973 112.31079102 151.78442383 C113.76796917 156.96873878 114.30838979 160.73904002 113 166 C111.5625 167.9375 111.5625 167.9375 110 169 C109.34 169 108.68 169 108 169 C108 169.66 108 170.32 108 171 C109.28535645 170.8141333 110.57071289 170.6282666 111.89501953 170.43676758 C155.22484409 164.17798977 155.22484409 164.17798977 176.8125 161.375 C201.24821001 158.19967953 225.67894624 154.97078429 250 151 C254.33137999 150.32073228 258.6658615 149.66140354 263 149 C261.7934375 148.071875 261.7934375 148.071875 260.5625 147.125 C258 145 258 145 257 143 C256.89886654 141.38736177 256.86056458 139.77060347 256.85282898 138.15481567 C256.84209602 136.61957245 256.84209602 136.61957245 256.83114624 135.05331421 C256.82845734 133.92599884 256.82576843 132.79868347 256.82299805 131.63720703 C256.81642685 130.45340454 256.80985565 129.26960205 256.80308533 128.04992676 C256.78673155 124.79781289 256.775124 121.54573266 256.7668798 118.29358912 C256.76173018 116.26232174 256.75565448 114.23105892 256.74936867 112.19979477 C256.7303178 105.84595907 256.71608572 99.49213499 256.7077567 93.13827622 C256.69797965 85.80075457 256.67164793 78.46353423 256.63125581 71.12611878 C256.6011139 65.45642117 256.58628973 59.78681003 256.58297569 54.11703384 C256.58062322 50.72978406 256.57163795 47.34285621 256.54651451 43.95569229 C256.52228425 40.17740853 256.52305885 36.39991896 256.5300293 32.62158203 C256.51081421 30.93668167 256.51081421 30.93668167 256.49121094 29.21774292 C256.50162666 27.67404022 256.50162666 27.67404022 256.51225281 26.09915161 C256.50986445 25.20576647 256.5074761 24.31238132 256.50501537 23.3919239 C257.16782542 20.18901392 258.45597702 18.99551253 261 17 C264.5 16.4375 264.5 16.4375 268 17 C270.61595245 19.17416086 271.83984096 20.96973298 272.36671448 24.35899162 C272.52289968 27.4087819 272.54016558 30.43426365 272.51757812 33.48803711 C272.52809204 35.23031837 272.52809204 35.23031837 272.53881836 37.00779724 C272.55642533 40.84788918 272.54476433 44.68724429 272.53125 48.52734375 C272.5339443 51.19626278 272.53782014 53.86515944 272.54284668 56.53407288 C272.55011876 62.12850931 272.54054819 67.72273435 272.52148438 73.31713867 C272.49972683 79.7764475 272.50676016 86.23525105 272.52879 92.69454759 C272.54696945 98.24803094 272.54948967 103.80136258 272.53903532 109.35486609 C272.53281285 112.66832074 272.5335101 115.98148716 272.54518127 119.29493523 C272.5553424 122.99115999 272.53984921 126.68641574 272.51757812 130.38256836 C272.52567505 131.4752301 272.53377197 132.56789185 272.54211426 133.69366455 C272.47433277 139.7674606 272.02566589 143.34775103 268 148 C278.12516015 147.37916955 288.09181988 146.12050819 298.125 144.6875 C299.73490948 144.46060634 301.34485472 144.23396633 302.95483398 144.00756836 C311.9966282 142.73196183 321.03171456 141.4139002 330.0625 140.0625 C341.16004193 138.40456655 352.26409956 136.79391747 363.37399292 135.22091675 C365.26206907 134.95279435 367.14987702 134.68277513 369.03738403 134.41067505 C380.02171398 132.82912909 390.90932212 131.52100295 402 131 C397.6335977 139.94392233 392.24647233 145.10114089 382.9675293 148.79760742 C374.21302948 151.70067998 364.7262616 152.41392807 355.625 153.625 C353.55317931 153.91258156 351.48156247 154.20163564 349.41015625 154.4921875 C344.26958633 155.2094374 339.12661889 155.90733519 333.98245239 156.5982666 C331.10615255 156.98570136 328.23056474 157.37797244 325.35522461 157.77246094 C316.13171739 159.03788597 306.90573548 160.28246228 297.67578125 161.5 C296.73881409 161.62378021 295.80184692 161.74756042 294.83648682 161.87509155 C287.24097613 162.87832614 287.24097613 162.87832614 283.45092773 163.375 C272.84922547 164.76550591 262.27343943 166.23831718 251.71748352 167.94311523 C244.33066671 169.12806816 236.92490391 170.0819158 229.5 171 C220.96068912 172.07352448 212.43244986 173.17477959 203.9375 174.5625 C191.35462491 176.61623468 178.7181457 178.25561655 166.07667542 179.90411377 C163.54755603 180.23394594 161.01852622 180.56445894 158.48950195 180.89501953 C155.14333366 181.33232888 151.79677764 181.76649015 148.44995117 182.19873047 C146.87022298 182.40418482 145.29055053 182.61006836 143.7109375 182.81640625 C142.56324387 182.96591988 142.56324387 182.96591988 141.3923645 183.11845398 C137.12524553 183.68458562 132.8959097 184.3526857 128.66015625 185.125 C114.15761193 187.61183055 97.0767876 188.54869955 84 181 C83.03320312 180.46890625 82.06640625 179.9378125 81.0703125 179.390625 C62.5189009 168.43071246 56.29155136 151.52883968 49.1875 132.25 C48.36036257 130.03439102 47.53180732 127.81931088 46.7019043 125.60473633 C44.98666059 121.02603711 43.27655451 116.44546643 41.56933594 111.86376953 C37.92644321 102.10839875 34.19308047 92.38783724 30.45767212 82.66760254 C28.9983572 78.8700004 27.54141353 75.07149299 26.08558655 71.27255249 C25.40375351 69.49462083 24.72078732 67.71712325 24.03660583 65.94009399 C22.26514694 61.3332753 20.5204567 56.71824802 18.81005859 52.08837891 C18.27145454 50.64190727 18.27145454 50.64190727 17.7219696 49.16621399 C17.03614168 47.32203933 16.35676315 45.47544904 15.68489075 43.62614441 C15.3766185 42.80052505 15.06834625 41.9749057 14.75073242 41.12426758 C14.48419357 40.3982283 14.21765472 39.67218903 13.94303894 38.92414856 C12.8835787 36.76245745 11.89986739 35.47931184 10 34 C8.865625 33.95875 7.73125 33.9175 6.5625 33.875 C3 33 3 33 1.7265625 31.1171875 C0.69798367 28.77388385 -0.17111611 26.42034094 -1 24 C-1.433125 23.0925 -1.86625 22.185 -2.3125 21.25 C-3.15404766 18.49584401 -2.78220878 16.73773075 -2 14 C-1.34 14 -0.68 14 0 14 C0.185625 12.80375 0.37125 11.6075 0.5625 10.375 C0.66691406 9.70210937 0.77132812 9.02921875 0.87890625 8.3359375 C1.11657429 5.37210712 1.11657429 5.37210712 0 0 Z " fill="#E3636D" transform="translate(92,187)"/>
<path d="M0 0 C3.96139984 16.05862438 5.7060273 31.05194794 5.48828125 47.5625 C5.47891736 49.70295369 5.47181827 51.84341833 5.46684265 53.98388672 C5.44805369 59.52739815 5.39920731 65.07021945 5.34332275 70.61346436 C5.28234912 77.3127161 5.26007978 84.01220294 5.23105621 90.71165466 C5.18311576 100.80824485 5.087107 110.90333096 5 121 C-16.12 121 -37.24 121 -59 121 C-63.61231312 94.47919959 -63.61231312 94.47919959 -63.3125 82.5 C-63.30283203 81.27925781 -63.29316406 80.05851562 -63.28320312 78.80078125 C-63.21172372 73.10107597 -62.94267082 67.61861738 -62 62 C-61.5721446 55.96027375 -62.3115223 50.8041421 -64 45 C-62.04414675 43.99515796 -60.08523763 42.99626195 -58.125 42 C-57.03445312 41.443125 -55.94390625 40.88625 -54.8203125 40.3125 C-52 39 -52 39 -50 39 C-48.10037357 42.91483735 -46.20547349 46.83194147 -44.3125 50.75 C-44.0239917 51.34680573 -43.7354834 51.94361145 -43.43823242 52.5585022 C-40.03983574 59.59457474 -36.68138771 66.64628786 -33.41796875 73.74609375 C-33.12940506 74.37297089 -32.84084137 74.99984802 -32.54353333 75.64572144 C-31.15584315 78.66309198 -29.77518332 81.68327252 -28.40356445 84.70800781 C-24.53512846 93.85611831 -24.53512846 93.85611831 -19 102 C-15.32354905 102.69725794 -13.32009754 102.76650825 -10.0625 100.875 C-8.47565317 98.07468206 -8.71244835 96.20821519 -9 93 C-10.03003984 90.20804014 -11.40039698 87.62450578 -12.7890625 84.99609375 C-13.57420155 83.43489031 -14.35801352 81.87301889 -15.140625 80.31054688 C-16.37521214 77.87634604 -17.61913713 75.44866916 -18.88769531 73.03198242 C-27.39614049 56.73080245 -27.39614049 56.73080245 -24.88720703 46.81762695 C-24.59442871 45.88781006 -24.30165039 44.95799316 -24 44 C-23.61488206 42.39378019 -23.23186555 40.78705414 -22.8515625 39.1796875 C-22.45108976 37.74242992 -22.04227931 36.30746842 -21.625 34.875 C-21.40948486 34.10712158 -21.19396973 33.33924316 -20.97192383 32.5480957 C-19.76090337 28.31687846 -18.35945364 24.26325888 -16.6875 20.1875 C-14.36785643 14.20673223 -14.63794938 8.32582894 -15 2 C-13.2508503 1.66223316 -11.50063855 1.32996329 -9.75 1 C-8.77546875 0.814375 -7.8009375 0.62875 -6.796875 0.4375 C-4 0 -4 0 0 0 Z " fill="#FBCD62" transform="translate(196,51)"/>
<path d="M0 0 C9.14238894 6.37355115 15.36317236 14.75334536 17.80078125 25.6796875 C18.76963633 39.52047441 17.82554718 50.17489588 8.42578125 61.1171875 C-0.38791182 70.19267343 -9.13410567 74.05450729 -21.82421875 74.9296875 C-33.07681457 74.7145327 -41.82191102 70.57901232 -50.01171875 63.1171875 C-58.70290335 53.43272466 -62.72361715 43.94740147 -62.13671875 30.7421875 C-60.81359705 19.25035525 -55.79952565 10.3395488 -47.19921875 2.6796875 C-33.38667854 -7.48465507 -14.85937296 -8.92090241 0 0 Z " fill="#000000" transform="translate(494.19921875,433.3203125)"/>
<path d="M0 0 C21.78 0 43.56 0 66 0 C66 16.5 66 33 66 50 C44.22 50 22.44 50 0 50 C0 33.5 0 17 0 0 Z " fill="#CCCACD" transform="translate(215,74)"/>
<path d="M0 0 C6.27 0 12.54 0 19 0 C19.639375 1.464375 20.27875 2.92875 20.9375 4.4375 C23.51818384 9.66580183 26.86026482 13.24792765 31.109375 17.1875 C33.57233549 19.54868526 33.97586563 20.42601168 34.12025452 23.86001587 C34.11803391 25.08135223 34.11581329 26.3026886 34.11352539 27.56103516 C34.11367142 28.23432358 34.11381744 28.907612 34.1139679 29.6013031 C34.11327027 31.83058881 34.10548489 34.05979135 34.09765625 36.2890625 C34.09579154 37.83320063 34.09436789 39.37733934 34.09336853 40.92147827 C34.08954754 44.98870472 34.07972082 49.05589555 34.06866455 53.12310791 C34.05844144 57.2721712 34.05386898 61.42124025 34.04882812 65.5703125 C34.03809819 73.71355985 34.02050476 81.85677139 34 90 C28.39 90 22.78 90 17 90 C16.98582031 87.95039063 16.97164063 85.90078125 16.95703125 83.7890625 C16.92221964 81.769989 16.88722632 79.75091465 16.84741211 77.73193359 C16.82443596 76.34533122 16.80988495 74.95855938 16.80444336 73.57177734 C16.76363122 64.87565167 16.28949712 57.25483201 11 50 C3.46118134 42.6373481 -4.84899672 41.6975373 -15 41 C-16.14409888 22.45302557 -16.14409888 22.45302557 -13.6171875 17.03515625 C-11.85869403 15.11299348 -10.07633264 13.56696205 -8 12 C-4.48546672 8.24308511 -2.34947221 4.69894441 0 0 Z " fill="#D7E6FB" transform="translate(359,82)"/>
<path d="M0 0 C3.25856717 2.65795818 4.60197908 4.88121404 5.67578125 8.91015625 C6.07639771 10.37533691 6.07639771 10.37533691 6.48510742 11.87011719 C6.75814697 12.92360352 7.03118652 13.97708984 7.3125 15.0625 C7.60809814 16.15852539 7.90369629 17.25455078 8.20825195 18.38378906 C9.15593243 21.91825936 10.081303 25.45789139 11 29 C11.30905273 30.19028809 11.61810547 31.38057617 11.93652344 32.60693359 C14.43387335 42.24649461 14.43387335 42.24649461 15.51489258 46.52368164 C16.88199301 51.89434498 18.34503192 57.20645302 20 62.49609375 C21.99760261 68.88325959 23.67966811 75.32402766 25.3125 81.8125 C27.57961845 90.69343078 29.96492598 99.52248859 32.5625 108.3125 C33.1367283 110.26562219 33.71094712 112.21874717 34.28515625 114.171875 C35.15725127 117.1364983 36.02984014 120.10095779 36.90576172 123.06445312 C37.78489055 126.05986234 38.64462264 129.06023389 39.5 132.0625 C39.76756104 132.96073486 40.03512207 133.85896973 40.31079102 134.78442383 C41.7702658 139.97690967 42.27677104 143.72817118 41 149 C39.875 150.9375 39.875 150.9375 38 152 C34.5625 152.4375 34.5625 152.4375 31 152 C27.52222445 149.22404655 26.32936153 146.8197594 25.25390625 142.5546875 C24.97667725 141.48702148 24.69944824 140.41935547 24.41381836 139.31933594 C24.1328833 138.18270508 23.85194824 137.04607422 23.5625 135.875 C22.95110783 133.50245282 22.33912694 131.13005728 21.7265625 128.7578125 C21.43168945 127.59797852 21.13681641 126.43814453 20.83300781 125.24316406 C19.75903272 121.06183784 18.61016078 116.90451471 17.4375 112.75 C16.14134243 108.12215115 14.85858595 103.49127402 13.60546875 98.8515625 C10.98652095 89.15970969 8.28472213 79.50249757 5.4375 69.875 C3.01980946 61.68536925 0.80421304 53.47443548 -1.22241211 45.17993164 C-2.60491604 39.53265762 -4.07168194 33.91526995 -5.625 28.3125 C-5.83294189 27.56202393 -6.04088379 26.81154785 -6.25512695 26.03833008 C-7.3213461 22.24556899 -8.47801967 18.52147819 -9.8125 14.8125 C-11.03537688 10.88642159 -11.55933159 8.07513012 -11 4 C-8.11188513 -0.5054592 -5.11821063 -0.73117295 0 0 Z " fill="#050202" transform="translate(164,204)"/>
<path d="M0 0 C5.68554142 3.44318349 10.31309119 8.77469377 13.125 14.75 C13.65816746 17.74906696 13.76976095 20.52252009 13.625 23.5625 C12.59375 23.2325 11.5625 22.9025 10.5 22.5625 C7.1101772 21.60868346 4.16451715 21.16028214 0.625 21.5625 C-1.375 22.5625 -1.375 22.5625 -2.375 24.5625 C-2.89437749 28.04974883 -2.88781195 29.81464924 -0.875 32.75 C2.46228983 35.16953512 5.71576248 36.25942083 9.625 37.5625 C9.21271609 38.85557226 8.79479706 40.14684733 8.375 41.4375 C8.02695312 42.51644531 8.02695312 42.51644531 7.671875 43.6171875 C6.12075482 47.98115994 4.34507334 52.26231664 2.625 56.5625 C-12.885 56.5625 -28.395 56.5625 -44.375 56.5625 C-44.375 37.99107143 -44.375 37.99107143 -40.375 29.5625 C-39.385 29.7275 -38.395 29.8925 -37.375 30.0625 C-30.16781424 31.23698798 -30.16781424 31.23698798 -23.375 29.4375 C-21.89598334 26.66434376 -21.98898016 24.65065875 -22.375 21.5625 C-24.54120207 18.77738305 -26.73568161 17.88750994 -30.0625 16.875 C-30.87074219 16.62363281 -31.67898438 16.37226563 -32.51171875 16.11328125 C-33.12660156 15.93152344 -33.74148438 15.74976563 -34.375 15.5625 C-32.84922381 9.30681761 -29.67271951 5.17766827 -24.6953125 1.23046875 C-17.70452677 -3.01500842 -7.46148227 -3.19988469 0 0 Z " fill="#FAA55D" transform="translate(452.375,115.4375)"/>
<path d="M0 0 C21.78 0 43.56 0 66 0 C66 11.22 66 22.44 66 34 C44.22 34 22.44 34 0 34 C0 22.78 0 11.56 0 0 Z " fill="#A9D896" transform="translate(215,138)"/>
<path d="M0 0 C11.22 0 22.44 0 34 0 C34 21.78 34 43.56 34 66 C22.78 66 11.56 66 0 66 C0 44.22 0 22.44 0 0 Z " fill="#CEB5E6" transform="translate(295,106)"/>
<path d="M0 0 C5.11912073 4.42120976 5.37502643 10.63630446 6.38183594 16.95947266 C6.58724503 18.17148346 6.79265411 19.38349426 7.00428772 20.63223267 C7.56300277 23.94906856 8.10785663 27.26760458 8.64608669 30.58778811 C9.21393401 34.0730012 9.79792031 37.55551243 10.37969971 41.03842163 C11.35504957 46.89255323 12.31829718 52.7485757 13.27392578 58.60595703 C14.37511665 65.35488167 15.49322723 72.10082657 16.62105155 78.845348 C17.70923121 85.35419841 18.78718255 91.86469986 19.85993195 98.37611008 C20.31472761 101.13627405 20.77266216 103.89588903 21.23314667 106.65510941 C21.87793458 110.52308585 22.50757611 114.393448 23.13574219 118.26416016 C23.32582352 119.39494995 23.51590485 120.52573975 23.71174622 121.6907959 C26.55115704 139.43462489 26.55115704 139.43462489 23.375 144.6875 C20.26794769 146.40455522 18.50031342 146.58338557 15 146 C11.53769528 143.67591146 10.64684397 141.30989168 9.81785583 137.38815308 C9.47843101 135.44502554 9.15690541 133.49872128 8.84936523 131.55029297 C8.66828217 130.48622223 8.4871991 129.42215149 8.30062866 128.32583618 C7.70459625 124.80033752 7.13157576 121.27149947 6.55859375 117.7421875 C6.14691941 115.27972254 5.73381688 112.81749595 5.3193512 110.35549927 C4.34072937 104.52120888 3.37652813 98.68465139 2.41928011 92.84682667 C1.23479704 85.62852746 0.02833965 78.41394096 -1.17773438 71.19921875 C-2.96779453 60.47703488 -4.75143394 49.75381609 -6.50867558 39.02619743 C-7.29481627 34.23303722 -8.09163669 29.44286055 -8.93405151 24.65924072 C-9.07615775 23.84236345 -9.21826399 23.02548618 -9.36467648 22.18385506 C-9.62174161 20.71229478 -9.88390144 19.24160838 -10.15290928 17.77218437 C-12.20837481 5.9333997 -12.20837481 5.9333997 -9.4375 1.5 C-6.02467068 -0.60020266 -3.93311127 -0.63210717 0 0 Z " fill="#030102" transform="translate(233,204)"/>
<path d="M0 0 C3.62567469 2.73655819 4.86160264 4.27302644 5.71948242 8.77929688 C5.78901519 10.25817494 5.83281111 11.7384116 5.85546875 13.21875 C5.88731766 14.02022461 5.91916656 14.82169922 5.95198059 15.64746094 C6.05184846 18.2647008 6.11929319 20.88176157 6.1875 23.5 C6.25306819 25.32887824 6.32145326 27.15765755 6.39257812 28.98632812 C6.49972541 31.74342638 6.60548507 34.50046322 6.7026062 37.25793457 C6.96616377 44.68862811 7.43411381 52.08575808 8 59.5 C9.62814963 81.88423353 11.01365316 104.36839545 11.375 126.8125 C11.40094238 127.63492188 11.42688477 128.45734375 11.45361328 129.3046875 C11.47077121 134.49324627 11.47077121 134.49324627 9.16015625 136.98046875 C6.14052909 138.4056454 4.30327087 138.53930953 1 138 C-2.08518228 135.50651996 -3.77748891 133.93853045 -4.70361328 130.03222656 C-4.74212402 128.91299805 -4.78063477 127.79376953 -4.8203125 126.640625 C-4.87904541 125.32449219 -4.93777832 124.00835937 -4.99829102 122.65234375 C-5.04059408 121.18489776 -5.082828 119.71744977 -5.125 118.25 C-5.1874093 116.70431935 -5.25252029 115.15874586 -5.32006836 113.61328125 C-5.4715019 110.10902967 -5.61153552 106.60452862 -5.74658203 103.09960938 C-6.17707717 92.33745356 -6.78489 81.58321234 -7.35955811 70.82800293 C-7.55971525 67.05252752 -7.75451422 63.27681178 -7.94775391 59.50097656 C-8.07061666 57.12564994 -8.1934999 54.75032437 -8.31640625 52.375 C-8.37050156 51.30425232 -8.42459686 50.23350464 -8.48033142 49.13031006 C-8.80326016 42.95581795 -9.25641605 36.8051439 -9.78807068 30.64529419 C-10.20734336 25.41194767 -10.2249092 20.18461373 -10.25 14.9375 C-10.270625 13.82439453 -10.29125 12.71128906 -10.3125 11.56445312 C-10.31765625 10.50033203 -10.3228125 9.43621094 -10.328125 8.33984375 C-10.3374707 7.38456787 -10.34681641 6.42929199 -10.35644531 5.44506836 C-10 3 -10 3 -8.69042969 1.19750977 C-5.77302766 -0.86919401 -3.4433575 -0.47494586 0 0 Z " fill="#050202" transform="translate(301,204)"/>
<path d="M0 0 C3.5 0.5625 3.5 0.5625 5.68640137 2.37866211 C8.42070488 7.17883067 8.05772372 11.63102212 8.01757812 17.06640625 C8.02809204 18.81109695 8.02809204 18.81109695 8.03881836 20.59103394 C8.05642399 24.43593211 8.04476557 28.28009433 8.03125 32.125 C8.03394416 34.79631466 8.03781979 37.46760695 8.04284668 40.13891602 C8.05011828 45.73754856 8.04054841 51.33596986 8.02148438 56.93457031 C7.99971628 63.40185126 8.00676802 69.86862777 8.02879 76.33589649 C8.04695812 81.89445969 8.04949551 87.45287128 8.03903532 93.01145458 C8.03280801 96.32878975 8.03352024 99.64583662 8.04518127 102.96316528 C8.05532964 106.66198931 8.03986767 110.35984214 8.01757812 114.05859375 C8.02567505 115.15485077 8.03377197 116.25110779 8.04211426 117.38058472 C7.95942647 124.78003408 7.95942647 124.78003408 5.65124512 128.71118164 C2.82673482 131.14189849 1.23189937 131.71482242 -2.5 131.5625 C-5.15196228 129.78614807 -5.15196228 129.78614807 -7.5 126.5625 C-8.24841526 122.66601874 -8.17254554 118.81657673 -8.13110352 114.85913086 C-8.13825882 113.67489029 -8.14541412 112.49064972 -8.15278625 111.27052307 C-8.16678106 108.0306197 -8.15838253 104.79175289 -8.13869596 101.5519073 C-8.12228726 98.15850188 -8.13112524 94.76514778 -8.13621521 91.37171936 C-8.14073312 85.67468108 -8.12488403 79.97797146 -8.09692383 74.28100586 C-8.0648575 67.69667822 -8.06489433 61.11294275 -8.0821386 54.52857298 C-8.09800642 48.19014692 -8.09126962 41.85193777 -8.07420158 35.51352119 C-8.06733322 32.81778749 -8.06836113 30.12222775 -8.07574654 27.42649651 C-8.08118403 23.66278001 -8.06086874 19.90007583 -8.03344727 16.13647461 C-8.03997314 15.01792084 -8.04649902 13.89936707 -8.05322266 12.74691772 C-8.0404982 11.72211807 -8.02777374 10.69731842 -8.0146637 9.64146423 C-8.01185678 8.75197555 -8.00904985 7.86248686 -8.00615788 6.94604397 C-7.02598257 2.33030836 -4.47551474 0.71927915 0 0 Z " fill="#050202" transform="translate(356.5,203.4375)"/>
<path d="M0 0 C6.49901487 3.64275993 11.46835208 8.83369737 13.75 16 C14.66213662 24.58829938 13.73206332 31.47549014 8.9375 38.75 C4.41378451 43.40296451 -0.80637309 46.62080421 -7.30078125 47.3359375 C-15.49484941 47.43407005 -21.08425336 46.87961455 -27.18359375 41.19921875 C-33.17138816 34.78817068 -35.93933902 28.6804917 -35.66015625 19.84375 C-34.60665889 12.53950161 -30.90434198 6.61476978 -25.0546875 2.18359375 C-17.12953006 -3.01407444 -8.68295344 -3.91195467 0 0 Z " fill="#5B515E" transform="translate(138.25,445)"/>
<path d="M0 0 C6.91618831 3.89721722 11.39166916 9.28473052 13.6875 16.9375 C14.80255904 24.97831463 13.38641058 31.29577062 8.6875 37.9375 C4.07354456 42.96075794 -0.42586625 46.5095224 -7.36328125 47.2734375 C-15.82112538 47.37472905 -21.25903814 46.7452975 -27.50390625 40.87890625 C-34.03543663 33.95010926 -35.87567685 28.46382601 -35.6875 18.97265625 C-34.89198061 12.53392117 -31.63534664 7.88918494 -26.9375 3.5625 C-18.71557485 -2.78920183 -9.55618149 -4.3607274 0 0 Z " fill="#5B515E" transform="translate(483.3125,445.0625)"/>
<path d="M0 0 C2.5490542 2.15851709 3.82608418 3.93364732 4.36956978 7.26599121 C4.52973582 10.16865782 4.55168627 13.04603084 4.53344727 15.953125 C4.54206284 17.05773071 4.55067841 18.16233643 4.55955505 19.30041504 C4.58225185 22.95051525 4.57546922 26.5998501 4.56640625 30.25 C4.57163991 32.78678618 4.57791544 35.32357041 4.58518982 37.86035156 C4.59560078 43.17653575 4.59135118 48.49244208 4.57641602 53.80859375 C4.55948863 59.94877576 4.57533973 66.08824716 4.6076389 72.22835159 C4.63756906 78.1428014 4.63951688 84.05703039 4.6301403 89.97155762 C4.62931941 92.48499475 4.6362091 94.99844655 4.65091133 97.51184082 C4.66830694 101.02404786 4.65385414 104.53472969 4.63110352 108.046875 C4.64279572 109.08702759 4.65448792 110.12718018 4.66653442 111.19885254 C4.60384242 115.94937455 4.559797 118.2500777 1.65196228 122.14550781 C-1 124 -1 124 -4.0625 124.625 C-7 124 -7 124 -9.15124512 122.15223694 C-11.89026725 117.48204144 -11.55858862 113.26284498 -11.51757812 107.93920898 C-11.5245874 106.82324341 -11.53159668 105.70727783 -11.53881836 104.55749512 C-11.55641827 100.87010796 -11.5447685 97.18348866 -11.53125 93.49609375 C-11.53394413 90.93449252 -11.53782588 88.37289228 -11.54284668 85.81129456 C-11.54874432 80.44383052 -11.5405508 75.07664169 -11.52148438 69.70922852 C-11.49970539 63.50662577 -11.50677636 57.30454876 -11.52879 51.10195869 C-11.54913586 45.12984368 -11.54697436 39.15789187 -11.53526306 33.18574715 C-11.53259161 30.64637237 -11.53588016 28.1069842 -11.54518127 25.56762505 C-11.5553191 22.02185172 -11.53988335 18.477094 -11.51757812 14.93139648 C-11.52567505 13.87829788 -11.53377197 12.82519928 -11.54211426 11.7401886 C-11.45956403 4.67101468 -11.45956403 4.67101468 -9.18640137 1.35194397 C-5.91813474 -0.66896282 -3.75491952 -0.60346921 0 0 Z " fill="#030102" transform="translate(411,204)"/>
<path d="M0 0 C2.18540955 1.39967346 2.18540955 1.39967346 4 4 C4.60753242 7.36370742 4.55641706 10.69474174 4.53344727 14.10522461 C4.54206284 15.13165573 4.55067841 16.15808685 4.55955505 17.21562195 C4.58227334 20.61145179 4.57546485 24.00646029 4.56640625 27.40234375 C4.5716394 29.76119737 4.57791474 32.12004889 4.58518982 34.47889709 C4.59560504 39.42442669 4.59101648 44.36966875 4.57641602 49.31518555 C4.55923136 55.65530638 4.58271473 61.99452072 4.61790562 68.33454037 C4.63985871 73.20644648 4.63844303 78.07813504 4.6301403 82.95007515 C4.62931956 85.28767452 4.63620634 87.62528968 4.65091133 89.96284294 C4.66831669 93.23092339 4.65384618 96.49736652 4.63110352 99.76538086 C4.64279572 100.73229858 4.65448792 101.69921631 4.66653442 102.69543457 C4.60151085 107.28416324 4.49503262 109.34630576 1.65196228 113.1006012 C-1 115 -1 115 -4.0625 115.625 C-7 115 -7 115 -9.15124512 113.1006012 C-11.80126129 108.65618112 -11.56017001 104.8516143 -11.51757812 99.76538086 C-11.5245874 98.73719742 -11.53159668 97.70901398 -11.53881836 96.64967346 C-11.55640935 93.25445472 -11.54477197 89.86007082 -11.53125 86.46484375 C-11.53394437 84.10502462 -11.53782634 81.74520657 -11.54284668 79.38539124 C-11.54874307 74.44163434 -11.54017307 69.49816664 -11.52148438 64.55444336 C-11.49868269 58.21323377 -11.51182536 51.8727009 -11.53577423 45.53151608 C-11.55021746 40.65966172 -11.54563312 35.78796824 -11.53526306 30.91610909 C-11.53259236 28.57769249 -11.53587753 26.23926135 -11.54518127 23.90086174 C-11.55532355 20.63525476 -11.53987769 17.37074939 -11.51757812 14.10522461 C-11.52567505 13.13628265 -11.53377197 12.1673407 -11.54211426 11.16903687 C-11.45962634 4.65900941 -11.45962634 4.65900941 -9.18640137 1.39967346 C-5.95700539 -0.6676962 -3.74754305 -0.53536329 0 0 Z " fill="#020101" transform="translate(460,204)"/>
<path d="M0 0 C1.89962643 3.91483735 3.79452651 7.83194147 5.6875 11.75 C5.9760083 12.34680573 6.2645166 12.94361145 6.56176758 13.5585022 C9.96016426 20.59457474 13.31861229 27.64628786 16.58203125 34.74609375 C16.87059494 35.37297089 17.15915863 35.99984802 17.45646667 36.64572144 C18.84415685 39.66309198 20.22481668 42.68327252 21.59643555 45.70800781 C25.41368144 54.89769434 25.41368144 54.89769434 31 63 C32.17691406 63.32742187 33.35382813 63.65484375 34.56640625 63.9921875 C38 65 38 65 39.21435547 66.63378906 C40.25206801 68.77201372 41.1138783 70.89451367 41.9375 73.125 C42.948125 75.72375 43.95875 78.3225 45 81 C35.76 81 26.52 81 17 81 C11.68190009 70.50107997 6.58952782 59.93983663 1.7253418 49.22387695 C0.67336404 46.90635832 -0.38269682 44.59073373 -1.43945312 42.27539062 C-2.12262664 40.77614682 -2.80557774 39.27680164 -3.48828125 37.77734375 C-3.79768143 37.09808334 -4.1070816 36.41882294 -4.42585754 35.71897888 C-10.13956593 23.12688186 -10.13956593 23.12688186 -11.625 16.875 C-11.86476562 15.88242188 -12.10453125 14.88984375 -12.3515625 13.8671875 C-12.94312739 11.25147286 -13.48892862 8.63249977 -14 6 C-12.04414675 4.99515796 -10.08523763 3.99626195 -8.125 3 C-6.48917969 2.1646875 -6.48917969 2.1646875 -4.8203125 1.3125 C-2 0 -2 0 0 0 Z " fill="#FCDD7B" transform="translate(146,90)"/>
<path d="M0 0 C3.44404688 13.6222415 4.55043082 26.30618474 4.390625 40.32421875 C4.38313897 42.29245928 4.37745726 44.2607074 4.37347412 46.22895813 C4.35840329 51.3400736 4.31928814 56.45071414 4.2746582 61.56164551 C4.23329851 66.80470358 4.21537736 72.04784048 4.1953125 77.29101562 C4.15277046 87.52754925 4.08475249 97.76373472 4 108 C3.67 108 3.34 108 3 108 C0.78047596 97.43187324 -1.42004672 86.85997374 -3.59776211 76.28314781 C-4.61002231 71.36962703 -5.62827737 66.45752495 -6.66137695 61.54833984 C-7.66203524 56.79212682 -8.64545225 52.03261943 -9.61802864 47.27058792 C-9.98803677 45.47332712 -10.36378032 43.67723516 -10.74593925 41.88251877 C-13.57453202 28.57115747 -14.74912803 15.60505689 -15 2 C-4.5 0 -4.5 0 0 0 Z " fill="#FCDD7B" transform="translate(196,51)"/>
<path d="M0 0 C0.33 0 0.66 0 1 0 C1 32.01 1 64.02 1 97 C-20.12 97 -41.24 97 -63 97 C-67.6245885 70.40861611 -67.6245885 70.40861611 -67.375 58.875 C-67.37306641 57.11929688 -67.37306641 57.11929688 -67.37109375 55.328125 C-67.29203892 47.40507388 -66.40369433 39.79381489 -65 32 C-64.67 32 -64.34 32 -64 32 C-63.60953491 33.74071777 -63.60953491 33.74071777 -63.21118164 35.51660156 C-62.12693635 39.83887225 -60.51462806 43.7121736 -58.62109375 47.734375 C-58.29266983 48.4468187 -57.96424591 49.15926239 -57.62586975 49.89329529 C-56.56935648 52.18182905 -55.50348709 54.46586611 -54.4375 56.75 C-53.71017864 58.32167053 -52.9836189 59.89369373 -52.2578125 61.46606445 C-50.82903105 64.56067492 -49.39758884 67.65403123 -47.96435547 70.74658203 C-45.43676133 76.20915203 -42.96010328 81.69424768 -40.5 87.1875 C-39.345 89.765625 -38.19 92.34375 -37 95 C-18.685 95.495 -18.685 95.495 0 96 C0 64.32 0 32.64 0 0 Z " fill="#E6BD5B" transform="translate(200,75)"/>
<path d="M0 0 C6.27 0 12.54 0 19 0 C19 0.33 19 0.66 19 1 C15.7 1 12.4 1 9 1 C9 16.18 9 31.36 9 47 C4.545 45.02 4.545 45.02 0 43 C-4.09888056 42.12014472 -4.09888056 42.12014472 -8.0625 41.75 C-9.37347656 41.60046875 -10.68445313 41.4509375 -12.03515625 41.296875 C-13.01355469 41.19890625 -13.99195313 41.1009375 -15 41 C-16.14409888 22.45302557 -16.14409888 22.45302557 -13.6171875 17.03515625 C-11.85869403 15.11299348 -10.07633264 13.56696205 -8 12 C-4.48546672 8.24308511 -2.34947221 4.69894441 0 0 Z " fill="#C0DAFB" transform="translate(359,82)"/>
<path d="M0 0 C16.17 0 32.34 0 49 0 C49 5.61 49 11.22 49 17 C43.8756842 17.11529711 38.75593106 17.21466823 33.63134766 17.2746582 C31.89128304 17.29968233 30.15132227 17.33371294 28.41162109 17.37719727 C25.89915245 17.4383892 23.3880822 17.46632959 20.875 17.48828125 C19.72294067 17.52699089 19.72294067 17.52699089 18.54760742 17.56648254 C12.63790248 17.56949786 8.52773997 15.8178163 4 12 C0.7952126 8.05763146 0 5.18985939 0 0 Z " fill="#CBF39F" transform="translate(231,139)"/>
<path d="M0 0 C12.55555556 0 12.55555556 0 16 3 C18.39112209 6.58668313 18.23381027 8.16396569 18.1953125 12.41796875 C18.18886719 13.67158203 18.18242187 14.92519531 18.17578125 16.21679688 C18.15902344 17.52712891 18.14226562 18.83746094 18.125 20.1875 C18.11496639 21.52277987 18.1058412 22.85806689 18.09765625 24.19335938 C18.07405367 27.46231645 18.03818219 30.73118071 18 34 C12.06 34 6.12 34 0 34 C0 22.78 0 11.56 0 0 Z " fill="#A8A4A9" transform="translate(343,138)"/>
<path d="M0 0 C0.88945312 -0.01546875 1.77890625 -0.0309375 2.6953125 -0.046875 C6.91296442 -0.02169499 9.39378796 0.14439648 13.08984375 2.3125 C15 4.5 15 4.5 15.5625 8 C14.90896897 12.06641529 14.17344482 12.99638847 11 15.5 C8.48217773 16.00170898 8.48217773 16.00170898 5.68359375 15.99609375 C4.67232422 15.99673828 3.66105469 15.99738281 2.61914062 15.99804688 C1.56919922 15.97806641 0.51925781 15.95808594 -0.5625 15.9375 C-1.61630859 15.94458984 -2.67011719 15.95167969 -3.75585938 15.95898438 C-11.44696145 15.89517817 -11.44696145 15.89517817 -13.79272461 14.21899414 C-15.48634194 11.80751595 -15.46056636 9.41525255 -15.59375 6.53515625 C-13.48397561 -0.69637306 -6.13307997 -0.10666226 0 0 Z " fill="#050505" transform="translate(248,90.5)"/>
<path d="M0 0 C5.61 0 11.22 0 17 0 C17 5.61 17 11.22 17 17 C11.39 17 5.78 17 0 17 C0 11.39 0 5.78 0 0 Z " fill="#B0ABB1" transform="translate(360,50)"/>
<path d="M0 0 C4.38763091 3.05804579 6.22579103 8.11148805 8 13 C8 13.66 8 14.32 8 15 C2.06 17.475 2.06 17.475 -4 20 C-8.81553398 7.66019417 -8.81553398 7.66019417 -8 3 C-5.90969097 -0.30048795 -3.75401597 -0.64092956 0 0 Z " fill="#BC8762" transform="translate(131,62)"/>
<path d="M0 0 C2.74640907 1.82872274 3.01707267 3.07842471 3.73046875 6.35546875 C3.88128906 7.62003906 4.03210938 8.88460938 4.1875 10.1875 C4.34605469 11.45980469 4.50460938 12.73210938 4.66796875 14.04296875 C4.77753906 15.01878906 4.88710937 15.99460937 5 17 C-1.435 17.495 -1.435 17.495 -8 18 C-8.24878997 15.56305726 -8.47463404 13.12761611 -8.6875 10.6875 C-8.79674805 9.65206055 -8.79674805 9.65206055 -8.90820312 8.59570312 C-9.32709421 3.49508821 -9.32709421 3.49508821 -7.70703125 1.04296875 C-5.05328361 -0.57842855 -3.03239926 -0.37904991 0 0 Z " fill="#BD8863" transform="translate(188,20)"/>
<path d="M0 0 C1.9375 1.125 1.9375 1.125 3 3 C3.50030235 6.93094707 3.5996142 9.1005787 1.375 12.4375 C-1.75683492 14.49791771 -3.31544773 14.6767545 -7 14 C-9.9375 11.9375 -9.9375 11.9375 -12 9 C-12.06625411 5.1572617 -11.81899419 3.00799284 -9.375 0 C-5.91616747 -1.45635054 -3.58701629 -0.91305869 0 0 Z " fill="#040304" transform="translate(132,461)"/>
<path d="M0 0 C2 1.625 2 1.625 3 4 C2.93416738 7.75245951 2.81598805 10.06312483 0.3125 12.9375 C-2.76819895 14.35295627 -4.64720251 14.55879958 -8 14 C-10.4375 11.9375 -10.4375 11.9375 -12 9 C-12 5.19715329 -11.7968187 2.98069994 -9.375 0 C-5.88418213 -1.46981805 -3.60851044 -0.98413921 0 0 Z " fill="#030203" transform="translate(477,461)"/>
</svg>
